<?xml version="1.0" standalone="no"?>
<!DOCTYPE svg PUBLIC "-//W3C//DTD SVG 20010904//EN"
 "http://www.w3.org/TR/2001/REC-SVG-20010904/DTD/svg10.dtd">
<svg version="1.0" xmlns="http://www.w3.org/2000/svg"
 width="2560.000000pt" height="2560.000000pt" viewBox="0 0 2560.000000 2560.000000"
 preserveAspectRatio="xMidYMid meet">
<metadata>
Created by potrace 1.14, written by Peter Selinger 2001-2017
</metadata>
<g transform="translate(0.000000,2560.000000) scale(0.100000,-0.100000)"
fill="#000000" stroke="none">
<path d="M5727 18804 c-1 -2 -43 -6 -93 -9 -83 -5 -136 -9 -244 -21 -25 -2
-63 -6 -85 -9 -51 -5 -302 -43 -335 -50 -14 -3 -52 -10 -84 -16 -33 -5 -62
-12 -65 -14 -3 -1 -22 -6 -41 -9 -177 -28 -649 -168 -895 -266 -44 -17 -84
-33 -90 -34 -5 -2 -28 -11 -50 -20 -103 -45 -132 -58 -160 -69 -40 -16 -431
-213 -475 -239 -19 -11 -78 -46 -130 -76 -172 -100 -554 -360 -627 -426 -6 -6
-26 -22 -44 -36 -221 -166 -584 -511 -797 -757 -202 -234 -412 -514 -559 -749
-168 -267 -299 -515 -448 -849 -78 -174 -189 -490 -261 -745 -70 -243 -159
-693 -178 -895 -2 -22 -7 -65 -10 -95 -35 -292 -41 -904 -12 -1135 2 -16 7
-61 11 -100 4 -38 9 -90 12 -115 3 -25 6 -54 7 -65 1 -11 6 -40 10 -65 3 -25
11 -74 17 -110 20 -133 57 -314 96 -470 20 -83 70 -265 83 -304 6 -17 22 -69
36 -116 97 -313 310 -799 476 -1085 336 -579 661 -994 1129 -1440 52 -49 121
-112 154 -140 32 -27 66 -57 75 -65 21 -21 203 -166 275 -220 33 -25 64 -48
70 -53 58 -44 121 -87 235 -161 74 -49 147 -97 162 -107 15 -11 30 -19 33 -19
3 0 34 -18 68 -39 92 -58 211 -122 412 -221 166 -82 484 -220 506 -220 5 0 17
-4 27 -10 71 -39 616 -203 752 -226 14 -3 33 -7 42 -10 9 -3 26 -7 37 -9 12
-3 31 -7 44 -10 39 -9 360 -63 417 -71 81 -11 78 -10 165 -18 44 -4 91 -10
105 -12 152 -25 825 -25 1020 1 19 2 58 7 85 10 51 6 114 15 150 20 56 8 102
16 121 20 12 3 39 7 60 11 21 3 76 14 121 25 44 10 94 21 110 24 180 32 749
219 961 316 35 16 69 29 76 29 6 0 16 4 21 9 6 5 44 23 85 41 167 72 590 290
712 367 21 12 40 23 44 23 3 0 29 15 57 33 109 70 137 87 141 87 8 0 351 227
491 325 205 143 689 515 774 595 9 8 36 31 61 50 24 19 62 51 85 71 22 20 83
73 135 119 100 87 227 202 344 310 229 211 739 731 977 994 24 27 53 58 64 70
11 12 52 57 90 101 39 44 72 82 75 85 13 12 302 352 368 433 l72 88 19 -23
c10 -13 47 -57 81 -98 34 -41 71 -86 83 -100 12 -14 71 -83 132 -155 60 -71
119 -139 130 -151 11 -12 43 -47 70 -79 28 -32 61 -70 75 -84 14 -15 45 -49
69 -76 129 -145 336 -362 605 -630 296 -295 363 -360 540 -520 49 -44 96 -87
105 -96 42 -40 391 -336 511 -432 410 -328 768 -582 1170 -829 85 -52 187
-112 225 -133 39 -21 75 -41 80 -45 22 -15 198 -108 345 -181 633 -315 1246
-513 1870 -603 77 -11 137 -18 170 -21 19 -2 78 -7 130 -11 123 -12 578 -11
745 0 172 11 190 13 260 21 33 4 71 9 85 10 14 1 45 5 70 9 47 8 66 11 140 21
149 21 399 75 610 130 127 34 440 132 505 160 17 6 91 36 165 65 165 64 198
79 425 190 154 76 448 238 518 285 12 8 85 57 162 108 117 77 368 258 385 277
3 3 37 31 76 62 39 31 77 62 85 70 8 7 30 26 49 42 170 139 473 446 654 661
33 39 62 72 66 75 5 4 46 57 238 310 72 95 285 431 377 595 92 165 230 451
300 625 25 63 50 124 55 135 21 47 80 219 114 330 21 66 44 140 51 165 56 180
136 552 169 791 4 25 9 57 11 70 6 41 14 111 20 189 4 41 8 86 11 100 24 150
23 767 -2 1030 -8 88 -23 226 -29 270 -20 142 -22 155 -35 230 -18 99 -21 114
-41 210 -41 196 -87 371 -151 575 -30 98 -147 420 -173 480 -150 336 -227 494
-334 678 -28 49 -51 91 -51 93 0 3 -9 17 -19 32 -10 15 -47 72 -82 127 -63 99
-204 306 -243 356 -12 15 -30 39 -41 55 -24 33 -107 137 -115 144 -3 3 -13 14
-21 26 -8 11 -36 47 -64 79 -220 257 -471 508 -694 695 -29 25 -59 50 -65 55
-26 25 -208 167 -296 231 -167 122 -476 324 -496 324 -6 0 -15 5 -22 12 -27
27 -416 230 -544 284 -32 13 -84 36 -115 50 -269 121 -782 287 -1043 338 -14
3 -59 12 -100 21 -41 9 -97 21 -125 25 -27 5 -61 11 -75 14 -28 6 -225 34
-280 41 -19 2 -60 7 -90 10 -30 3 -71 8 -90 10 -213 26 -828 26 -1035 1 -11
-2 -49 -6 -85 -10 -36 -4 -76 -9 -90 -11 -94 -15 -172 -28 -238 -41 -42 -8
-91 -17 -108 -20 -46 -7 -326 -78 -429 -108 -232 -68 -599 -204 -798 -295 -37
-17 -70 -31 -73 -31 -7 0 -406 -199 -479 -240 -317 -174 -645 -378 -891 -552
-34 -24 -90 -63 -125 -87 -85 -59 -455 -339 -487 -369 -8 -7 -30 -25 -50 -40
-21 -15 -39 -29 -42 -32 -3 -3 -59 -50 -125 -105 -66 -54 -122 -101 -125 -105
-3 -3 -34 -30 -70 -60 -36 -30 -70 -59 -76 -65 -6 -5 -40 -35 -75 -66 -265
-234 -716 -671 -963 -934 -103 -109 -245 -262 -282 -304 -21 -25 -50 -56 -64
-70 -22 -22 -82 -90 -279 -316 -14 -16 -49 -57 -76 -90 -28 -33 -53 -62 -56
-65 -3 -3 -40 -48 -83 -100 -43 -52 -87 -105 -97 -118 l-19 -23 -106 128 c-58
71 -127 153 -152 183 -53 61 -252 289 -267 306 -5 6 -39 44 -75 84 -36 40 -76
85 -90 100 -14 15 -74 81 -135 146 -122 133 -696 708 -821 824 -563 520 -1047
909 -1569 1262 -131 88 -461 298 -469 298 -2 0 -33 17 -68 39 -35 21 -86 50
-113 65 -28 15 -70 39 -95 53 -57 32 -414 211 -500 251 -109 50 -354 150 -493
202 -111 40 -209 72 -462 150 -37 11 -220 57 -255 64 -14 2 -58 12 -97 20 -40
9 -87 18 -105 21 -18 3 -55 10 -83 15 -48 9 -70 12 -160 25 -22 3 -53 7 -70
10 -16 2 -60 7 -96 10 -36 4 -86 9 -110 12 -51 6 -676 13 -682 7z m461 -2089
c376 -19 844 -143 1247 -331 44 -21 82 -38 85 -39 8 -2 242 -120 280 -142 19
-11 62 -35 95 -53 33 -18 77 -44 97 -57 21 -12 40 -23 42 -23 11 0 465 -295
511 -331 5 -5 87 -66 180 -135 169 -126 391 -299 410 -320 6 -6 69 -60 140
-120 452 -379 1012 -933 1487 -1469 71 -80 134 -152 162 -186 16 -19 43 -50
60 -69 17 -20 49 -58 71 -85 22 -27 56 -67 76 -90 27 -30 325 -401 370 -460 8
-11 -139 -203 -346 -450 -33 -40 -78 -94 -100 -121 -22 -27 -54 -64 -71 -84
-17 -19 -44 -50 -60 -69 -40 -47 -114 -132 -193 -220 -36 -40 -77 -85 -90
-100 -261 -294 -716 -754 -1026 -1036 -55 -49 -106 -97 -115 -105 -9 -8 -47
-42 -85 -75 -39 -33 -72 -62 -75 -65 -34 -39 -449 -372 -630 -506 -415 -309
-859 -580 -1200 -733 -161 -73 -281 -125 -290 -127 -3 0 -12 -4 -20 -7 -42
-18 -157 -59 -173 -62 -10 -2 -44 -13 -75 -24 -116 -40 -368 -101 -487 -117
-27 -3 -52 -7 -55 -9 -30 -18 -539 -27 -702 -13 -111 10 -246 27 -303 38 -27
5 -66 12 -85 15 -19 3 -42 8 -50 10 -8 2 -30 7 -48 10 -145 24 -538 146 -677
209 -16 8 -59 26 -95 41 -100 41 -331 163 -465 245 -259 158 -489 341 -715
569 -200 201 -278 293 -426 496 -289 398 -523 916 -632 1400 -72 317 -97 546
-96 880 0 212 10 388 29 513 3 17 7 49 10 70 39 274 124 587 238 872 56 141
211 463 240 500 7 8 21 31 31 50 52 96 210 323 316 454 132 163 321 362 450
473 24 21 51 45 60 53 8 8 36 31 60 50 25 19 47 37 50 41 23 28 418 299 436
299 4 0 15 6 23 14 25 22 252 140 371 193 243 109 618 231 797 259 21 3 41 8
44 9 9 6 251 44 319 50 36 4 76 8 90 11 14 2 102 7 195 10 94 4 172 8 173 10
2 1 9 1 15 -1 7 -2 63 -6 125 -10z m13582 1 c936 -49 1822 -433 2504 -1086 49
-47 102 -99 117 -116 16 -17 46 -49 66 -71 145 -151 419 -518 483 -648 6 -11
26 -47 45 -80 31 -53 157 -302 160 -315 1 -3 9 -23 19 -45 121 -273 225 -628
270 -915 3 -19 8 -44 10 -55 4 -18 9 -60 22 -170 19 -169 25 -554 10 -730 -66
-787 -353 -1514 -846 -2135 -100 -127 -131 -161 -295 -326 -148 -149 -205
-200 -373 -333 -229 -183 -604 -403 -867 -510 -44 -18 -93 -38 -110 -46 -29
-13 -219 -77 -320 -108 -198 -61 -500 -119 -755 -144 -184 -18 -601 -8 -750
17 -30 5 -71 12 -90 15 -224 37 -603 156 -843 264 -26 11 -68 30 -94 42 -86
38 -316 155 -407 208 -49 28 -91 51 -93 51 -11 0 -388 241 -509 325 -206 144
-629 466 -669 511 -5 6 -48 42 -95 80 -47 38 -87 71 -90 74 -3 4 -45 42 -95
85 -89 79 -115 102 -244 220 -210 192 -578 560 -816 816 -147 158 -235 256
-394 439 -114 130 -117 133 -201 235 -41 49 -85 101 -97 115 -34 40 -246 305
-267 335 -11 14 -30 38 -42 52 -26 30 -32 15 56 130 52 68 290 363 305 379 5
6 28 32 50 59 82 100 232 273 400 461 189 212 340 370 620 649 269 269 470
459 620 586 22 19 45 39 50 45 9 10 267 228 305 257 8 7 49 39 90 73 41 33
147 114 235 180 167 125 184 137 250 181 22 14 42 29 45 32 6 7 137 95 245
163 277 177 657 378 905 478 30 12 69 28 85 35 174 74 510 171 695 200 19 3
42 8 50 10 8 2 39 7 69 10 30 4 63 8 73 10 11 2 79 7 151 11 73 3 133 7 134 8
2 2 86 -1 223 -8z"/>
</g>
</svg>
